<svg xmlns="http://www.w3.org/2000/svg" viewBox="0 0 283.46 283.46"><defs><style>.cls-1{fill:#fbb91b;}.cls-2{fill:#275f41;}</style></defs><title>Logo_v1</title><g id="Ebene_2" data-name="Ebene 2"><g id="Ebene_1-2" data-name="Ebene 1"><rect class="cls-1" width="283.46" height="283.46"/><path class="cls-2" d="M154.16,77a29.45,29.45,0,0,1,5.7-4.66c-.6-5.58-3-18.1-12.56-28.69a19.48,19.48,0,0,1-2.49,6.3,45.59,45.59,0,0,1,9.35,27Z"/><path class="cls-2" d="M117.28,121.31a14.13,14.13,0,0,0,2.22.18,10.37,10.37,0,0,0,8.29-3.71h0v0c0-.59-.24-5.87-6.5-9a14.61,14.61,0,0,0-6.54-1.57,16.94,16.94,0,0,0-9.7,3.25l0,0v0c.11.37,2.85,9.29,12.24,10.8"/><path class="cls-2" d="M66.55,113.36a12.76,12.76,0,0,0,4.79,1,9.87,9.87,0,0,0,6.24-2.11h0v0c.12-.58,1.06-5.77-4.36-10.19a14.55,14.55,0,0,0-9.42-3.34,17.28,17.28,0,0,0-6.8,1.39l0,0v0c0,.4.7,9.69,9.56,13.24"/><path class="cls-2" d="M99.72,70.08a13.6,13.6,0,0,0,3.5.49,10.19,10.19,0,0,0,7.33-2.88h0v0c.06-.59.4-5.86-5.5-9.62a14.56,14.56,0,0,0-7.92-2.34A17.12,17.12,0,0,0,88.73,58l0,0v0c.07.39,1.83,9.54,11,12"/><path class="cls-2" d="M120.42,60h0c.51-.31,5-3.16,4.49-10.14-.63-9.51-9.25-13-9.62-13.2h0l0,0c-.28.29-6.61,7.12-3.19,16,2.52,6.54,7.75,7.25,8.34,7.31"/><path class="cls-2" d="M157.66,43.7h0c.5,0,4.95-.6,7.16-6.12,3-7.53-2.31-13.4-2.54-13.65l0,0h0C162,24,154.58,27,154,35c-.46,5.93,3.28,8.4,3.71,8.66"/><path class="cls-2" d="M165.86,62.86v0h0a7.55,7.55,0,0,0,1.89.2,11.2,11.2,0,0,0,8.5-4.06c6.37-7.09,2.89-15.73,2.74-16.09l0,0h0c-.4,0-9.72.24-13.69,8.9-3,6.48.43,10.89.58,11.07"/><path class="cls-2" d="M190.87,62.93h0c.23,0,5.75-.86,8.07-7.59,3.11-9-3.46-15.62-3.74-15.9l0,0,0,0c-.36.16-8.85,4-9.14,13.53-.22,7.13,4.64,9.85,4.84,10"/><path class="cls-2" d="M210.73,96c-4.68,5.2-2.95,10.19-2.74,10.74v0h0a9.56,9.56,0,0,0,4.84,1.25,12.14,12.14,0,0,0,6.23-1.84c8.19-4.87,7.44-14.17,7.41-14.56v0h0a16.5,16.5,0,0,0-4.28-.53,15,15,0,0,0-11.44,5"/><path class="cls-2" d="M163.92,112.81c-5.56,4.45-4.5,9.93-4.45,10.16h0v0a9.85,9.85,0,0,0,6.31,2.16,13.12,13.12,0,0,0,4.71-.94c8.88-3.48,9.64-12.76,9.67-13.16v0l0,0a17.33,17.33,0,0,0-6.93-1.45,14.58,14.58,0,0,0-9.3,3.25"/><path class="cls-2" d="M137.76,46.09h.06c.19-.15,4.55-3.62,3.21-10.61-1.8-9.37-10.79-11.81-11.17-11.91h0l0,0c-.24.31-5.68,7.88-1.18,16.28,3.23,6,8.54,6.23,9.14,6.23"/><path class="cls-2" d="M181.44,84.45h0a9.47,9.47,0,0,0,4.69,1.18,12.15,12.15,0,0,0,6.37-1.94c8.12-5,7.21-14.28,7.17-14.67v0h0a16,16,0,0,0-4-.47A15,15,0,0,0,184,73.65c-4.67,5.37-2.65,10.57-2.56,10.79Z"/><path class="cls-2" d="M94.68,80.72l-4.8,3.53a33.68,33.68,0,0,0,10.75,10.5l1.21-.64c1.9-1,3.74-1.88,5.49-2.61A27.38,27.38,0,0,1,94.68,80.72"/><path class="cls-2" d="M91,47.73h0c.46.21,4.6,1.95,9.27-1.73,6.37-5,4.7-12.76,4.62-13.08v0h0c-.34,0-8.17-1.22-12.76,5.47-3.37,4.9-1.36,8.91-1.12,9.36Z"/><path class="cls-2" d="M140.6,60.75l0,0c-.27.19-6.71,4.8-5.37,12.8,1,5.86,5.21,7.35,5.69,7.5h0c.48-.16,4.66-1.78,5.47-7.67,1.09-8-5.48-12.44-5.76-12.63Z"/><path class="cls-2" d="M63.17,123.66v0c.19.29,4.56,6.88,12.6,5.82,5.9-.77,7.54-5,7.7-5.43h0v0c-.14-.48-1.61-4.72-7.48-5.73-8-1.37-12.62,5-12.82,5.32"/><path class="cls-2" d="M209.14,127.38c8,1.06,12.42-5.54,12.6-5.82l0,0,0,0c-.2-.27-4.83-6.69-12.82-5.32-5.86,1-7.33,5.25-7.48,5.73v0h0c.16.47,1.8,4.65,7.7,5.43"/><path class="cls-2" d="M218.38,78.19h0c.34-.37,3.26-3.78,1.18-9.35-2.83-7.59-10.72-8.36-11.05-8.39h0l0,0c-.15.3-3.64,7.4,1.33,13.81,3.64,4.7,8.07,4,8.57,3.92"/><path class="cls-2" d="M81.37,76.54h0c.33-.38,3.14-3.87.89-9.38-3.07-7.51-11-8-11.3-8h0l0,0c-.14.31-3.41,7.52,1.75,13.77,3.78,4.59,8.19,3.77,8.68,3.66"/><path class="cls-2" d="M143.35,152.71a62.43,62.43,0,0,1,.64-8.92l.76-.15c.57-.08,2.34-.38,2.89-.48l2.32-.54a56.94,56.94,0,0,0-.9,10.09,58.31,58.31,0,0,0,11.09,34c-2.08.35-4.17.64-6.29.87a63,63,0,0,1-10.51-34.9M128.42,172a80.14,80.14,0,0,0,5.8,16,109.25,109.25,0,0,1-18.86-2.93A31.3,31.3,0,0,0,128.42,172m91-17.59c-12.91,15-31.46,26.14-52.89,31.06a52.53,52.53,0,0,1-11.62-32.77,51.65,51.65,0,0,1,1.32-11.61c1-.33,2.06-.68,3.24-1.09a96.94,96.94,0,0,0,11.3-4.71l.74-.37.71.41a28,28,0,0,0,12.16,3.72c.7.05,1.4.07,2.09.07a27.75,27.75,0,0,0,15.32-4.48,19.66,19.66,0,0,1-4.67-4.11,21.91,21.91,0,0,1-10.62,2.64c-.56,0-1.13,0-1.69-.06a23.51,23.51,0,0,1-4.22-.69l-3.13-.82,2.63-1.89a53.71,53.71,0,0,0,8.53-7.53c7.53-8.28,11.69-18.65,12.38-30.82.08-1.41.1-3.56,0-5.61a24.23,24.23,0,0,1-5.86,4.74c-.3,11-3.78,19.8-11,27.69-6.2,6.81-14.93,12.11-26.7,16.2a69.59,69.59,0,0,1-11.11,3.12l-1.26.19a63.67,63.67,0,0,1,34.2-42.18l-1.83-3.41-1.13-1.65a69.2,69.2,0,0,0-29.13,97.66c-1.8.09-3.61.14-5.43.14h-.91A74.7,74.7,0,0,1,150,104h0c1-1.15,2-2.3,3.1-3.47a43,43,0,0,0,4.69-9.82,19.69,19.69,0,0,1,15.73-12.06,20.41,20.41,0,0,1,2.75-6.16c-1.78,0-3.44.25-3.78.29a25.41,25.41,0,0,0-10.09,3.65l-.51.32a25.54,25.54,0,0,0-9.19,10.75l-.32.63-.18.52A36.16,36.16,0,0,1,145.7,100l0,0-.91,1.06-1-.64a36.91,36.91,0,0,1-16.22-34.1l-5.9-.8A42.4,42.4,0,0,0,122.43,79l.66,3-2.79-1.32a42.58,42.58,0,0,0-8.11-2.88L111,83.64a37,37,0,0,1,14.14,7l3.66,2.93-4.69-.23c-.6,0-1.22,0-1.82,0-.91,0-1.82,0-2.73.11l-1.59.12v0c-2.34.2-7.15.94-14.46,5.1l0,0,0,0a19.36,19.36,0,0,1-6,1.51c-.6,0-1.21.08-1.81.08A19.86,19.86,0,0,1,76.37,84.44a21.26,21.26,0,0,1-6.21-3.14A45.81,45.81,0,0,0,70.83,87a25.58,25.58,0,0,0,24.8,19.28c.79,0,1.59,0,2.37-.1a24.89,24.89,0,0,0,9-2.53l.38-.21a28.69,28.69,0,0,1,12.23-4h.25c.75-.07,1.6-.11,2.43-.11a28.68,28.68,0,0,1,17.54,5.94l1.13.86c-.84,1.18-1.63,2.37-2.4,3.59-.14.2-.28.39-.4.59h0A80.14,80.14,0,0,0,127,140.63a31.2,31.2,0,0,0-16.87-12.77c-.87-.28-1.76-.51-2.66-.71v0a25.33,25.33,0,0,1-19.4-15.94l-6.4-.79a31.13,31.13,0,0,0,11.73,17A31.06,31.06,0,0,0,80,134.41l.09.08,0,0,4.18,4.11a25.2,25.2,0,1,1,21.64,43.64,96.82,96.82,0,0,1-41.69-27.84H57c18.45,23.8,49.59,39.47,84.85,39.47s66.39-15.67,84.84-39.47Z"/><polygon class="cls-2" points="156.09 241.45 141.69 205.51 136.04 205.51 121.65 241.45 108.04 205.51 99.78 205.51 117.51 252.24 125.08 252.24 125.64 252.24 138.87 219.16 152.1 252.24 152.66 252.24 160.24 252.24 177.97 205.51 169.7 205.51 156.09 241.45"/><polygon class="cls-2" points="97.31 205.51 86.65 205.51 64.68 228.39 64.68 205.51 56.98 205.51 56.98 252.24 64.68 252.24 64.68 239.47 76.86 226.78 98.35 252.24 108.42 252.24 82.21 221.21 97.31 205.51"/><path class="cls-2" d="M218.79,240.93a3.62,3.62,0,0,1-3.59,3.59H188.63V232H215.2a3.62,3.62,0,0,1,3.58,3.6h0v5.38Zm-30.16-27.7h24.43a3.61,3.61,0,0,1,3.59,3.59v3.83a3.66,3.66,0,0,1-3.63,3.59H188.63Zm32.73,13.51a7.7,7.7,0,0,0,3-6.07v-7.46a7.72,7.72,0,0,0-7.73-7.69H180.89l0,46.73h37.84a7.7,7.7,0,0,0,7.73-7.67l0-10.57a7.7,7.7,0,0,0-5.17-7.25"/></g></g></svg>